<svg viewBox="0 0 283.55 269.51" xmlns="http://www.w3.org/2000/svg">
  <defs>
    <style>
      .cls-1{fill:#4f3855;}
      .cls-2{fill:#da6e44;}
      .cls-3{fill:#4a3856;}
    </style>
  </defs>
  <g id="Screen_02">
    <g id="Background">
      <g id="Layer_1-2">
        <g id="Group_662">
          <g id="Group_663">
            <path class="cls-2" d="M140.77,4.47c77.01,0,139.71,61.9,140.74,138.9,0-.87.03-1.72.03-2.6C281.54,63.03,218.52,0,140.77,0S0,63.02,0,140.77c0,.76,0,1.53.03,2.28C1.21,66.16,63.88,4.47,140.77,4.47"/>
            <path class="cls-2" d="M29.57,216.51c-.06-.71.46-1.34,1.17-1.42h.35c9.12,1.61,53.85,10.72,88.67,40.66,0,0-6.52-33.22-93.74-55.28-.35-.08-.71.13-.79.47-.02.08-.03.16,0,.24l8.49,58.26-4.13-42.96-.02.03Z"/>
            <path class="cls-3" d="M282.5,195.41c.71-.14,1.17-.82,1.02-1.53-.06-.31-.24-.58-.49-.77-4.94-3.73-17.38-12.11-29.3-12.12,0,0-107.99-3.95-117.69,83.38,9.42.63,18.88-.03,28.12-1.97,0,0-26.69,9.09-42.39-2.14-.61-.43,9.72,17.19,41.99,4.88,0,0,11.43-47.95,118.72-69.72M235.89,183.22c-38.25,6.52-71.72,29.43-91.64,62.72,23.73-59.24,91.64-62.72,91.64-62.72M243.37,186.97c-38.25,6.52-71.72,29.43-91.64,62.72,23.73-59.22,91.64-62.72,91.64-62.72M254.63,191.6c-39.11,7.54-74.31,28.64-99.39,59.58,28.52-52.89,99.39-59.58,99.39-59.58M157.11,256.91c36.78-59.57,113.06-62.86,113.06-62.86-76.21,14-113.06,62.86-113.06,62.86"/>
            <path class="cls-3" d="M16.56,192.48c10.39,1.02,68.02,8.66,107.92,55.46.08.11.2.13.31.06.09-.06.13-.17.08-.28-2.5-7.01-20.72-46.53-121.37-72.2-.35-.08-.71.13-.79.49-.03.11-.03.22,0,.31l18.86,67.61c.06.24.3.38.54.31.22-.06.36-.27.33-.5l-7.31-49.8c-.14-.66.28-1.32.94-1.46.16-.03.3-.03.46,0"/>
            <path class="cls-1" d="M209.83,140.27c-3.2.27-6.14,1.78-8.24,4.2-1.84,1.87-3.4,4-4.65,6.31-.79.17-1.5,1.23-2.36,3.16-1.84,4.03-2.98,6.49-3.42,7.27-1.83,3.1-4.68,5.46-8.06,6.66-2.96,1.34-6.17,2.06-9.42,2.09-1.98.13-3.97-.3-5.72-1.23-2.94-2.44-4.74-6-4.91-9.83-2.02-11.67-3.68-20.75-4.99-27.27-2.05-12.3-6.77-24-13.86-34.28-.71-.88-1.23-.61-1.5.61-.44,1.73-.76,3.48-.96,5.26-.36,1.43-.52,2.91-.44,4.38,4.05,8.28,7.42,16.86,10.08,25.68,1.51,5.18,2.44,10.5,2.8,15.87.08,1.15-.13,2.28-.61,3.32,0,0-.69.88-1.94,2.63-4.71,6.06-10.41,11.31-16.83,15.51-7.5,5.7-16.55,8.99-25.95,9.48-4.14.52-7.92-2.41-8.46-6.55-.09-.71-.08-1.43.03-2.14.33-5.95,1.42-11.86,3.24-17.54.3-.79.47-1.62.52-2.46,0-.35-.09-.52-.27-.52-.27,0-.79.88-1.48,2.54-3.02,7.23-4.6,14.97-4.65,22.8-.13,3.34.69,6.66,2.38,9.56,1.72,3.05,5.01,4.88,8.5,4.74,8.49-.49,16.66-3.34,23.59-8.24,7.23-4.52,13.67-10.2,19.02-16.83,2.87-3.64,4.71-7.97,5.35-12.55.96,6.41,1.65,10.63,2.02,12.8.39,4.8,2.6,9.29,6.14,12.55,2.61,1.72,5.7,2.54,8.82,2.36h.11c4.58-.2,8.91-2.19,12.06-5.51,3.79-3.65,6.71-8.12,8.5-13.07,5.5,4.76,12.46,7.48,19.73,7.73,1.32,0,2.46-1.31,3.59-4.03,1.15-2.96,1.72-6.13,1.67-9.29.03-3.48-.63-6.94-1.94-10.17-1.75-4.03-4.2-6.05-7.54-6.05M212,158.92c-.46-.02-.9-.11-1.31-.27-3.73-.98-7.26-2.68-10.35-4.99.05-.74.49-1.4,1.13-1.75,1.32-.85,2.9-1.24,4.47-1.13,1.48.03,2.87.66,3.86,1.75,1.26,1.07,2.2,2.47,2.72,4.03.08.49.14.99.17,1.5,0,.61-.27.87-.71.87"/>
            <path class="cls-1" d="M87.97,157.79c3.43-2.38,7.12-4.41,10.96-6.05,2.72-1.32,6.83-3.07,12.36-5.43,6-2.24,11.68-5.24,16.93-8.94,3.68-3.59,5.62-8.63,5.26-13.76-.66-5.9-3.94-11.18-8.94-14.38-5.76-4.24-11.81-8.11-18.06-11.59-5.54-2.8-10.55-6.53-14.82-11.05,1.07.16,2.16.25,3.24.27,1.84,0,2.72-.35,2.72-.96,0-.69-1.13-1.57-3.34-2.63l-10.17-4.72c-.61-.27-.69-.61-.17-1.05,12.2-8.63,25.32-15.89,39.1-21.65,19.02-8.69,31.04-12.97,36.2-12.97,3.24,0,4.83.61,4.83,1.75,0,.24-.08.47-.17.69-3.09,4.52-6.52,8.8-10.27,12.8-1.17,1.5-2.17,3.12-2.98,4.83-1.09,1.83-1.94,3.76-2.55,5.79-.35,1.94-.52,2.98-.35,2.98s.69-.79,1.4-2.28c1.67-3.12,3.73-6,6.14-8.6,1.94-2.19,3.86-4.38,5.7-6.49,4.19-4.33,6.88-9.89,7.62-15.87.52-2.28-.91-4.57-3.2-5.09-.61-.14-1.26-.14-1.87,0-6.49,0-19.81,4.53-39.98,13.59-19.9,9.02-32.96,16.22-39.02,21.65-2.38,2.11-3.59,7.98-3.59,17.62,0,.35.52.71,1.48,1.13.58.19,1.12.49,1.57.87,3.84,5.15,8.46,9.67,13.68,13.42,2.55,1.84,7.81,5.35,15.95,10.44,5.31,3.23,10.38,6.83,15.16,10.79.96.69,1.62,1.73,1.84,2.9-.03.71-.44,1.34-1.05,1.67-5.81,3.64-11.95,6.72-18.34,9.21-8.77,3.68-14.91,6.49-18.41,8.41-5.48,2.85-10.42,6.61-14.64,11.13-2.8,3.42-5.7,6.76-8.5,10.17-3.39,3.91-8.17,6.3-13.32,6.66-2.28.13-4.49-.9-5.87-2.72-1.43-1.95-2.14-4.35-2.02-6.76.35-5.16,1.56-10.23,3.59-14.99,1.53-3.56,2.71-7.26,3.51-11.04,0-.27-.08-.44-.17-.44-.35,0-.79.52-1.4,1.67-4.63,7.86-7.38,16.68-8.06,25.78-.14,4.41,1.32,8.71,4.13,12.11,2.16,2.99,5.61,4.79,9.29,4.83,5.05-.46,9.65-3.12,12.55-7.27,4.88-5.9,10.25-11.4,16.05-16.41"/>
            <path class="cls-2" d="M181.61,127.54c.79-.03,1.56-.16,2.33-.36,7.18-1.57,11.05-2.54,11.89-2.69,4.02-1.34,7.87-3.05,11.54-5.15,3.56-1.87,6.82-4.28,9.65-7.13,1.28.88,2.36,2.05,3.16,3.39,1.57-1.34,2.79-3.07,3.5-5.02-.87-1.42-2.03-2.63-3.42-3.54,1.21-2.33,2.05-4.85,2.47-7.43.33-2.5-.27-4.06-1.51-4.76-1.62-.88-3.83-.38-6.64,1.65-2.57,1.51-4.33,4.06-4.83,6.99-.3,2.24,1.39,4.6,5.05,7.24-4.61,3.37-9.62,6.16-14.91,8.31-5.54,2.33-10.94,4.69-16.49,7.02-1.29.63-1.89,1.09-1.94,1.35,0,.08.03.14.11.14h0M213.82,101.07c.05-.39.52-.87,1.35-1.15.65-.28,1.35-.41,2.06-.39.93.13,1.48.87,1.57,2.22.06,1.31-.2,2.61-.77,3.78-2.94-2-4.35-3.53-4.22-4.46"/>
            <path class="cls-2" d="M165.85,97.86c.71.82,1.65,1.37,2.71,1.61.69,0,.99-.2,1.1-.49.2-.28.55-.44.9-.39.69,0,1.8,1.91,3.31,5.79,1.15,2.52,1.92,5.18,2.3,7.92,0,.8.2,1.31.49,1.31.41,0,.8-.49,1.31-1.5,1.04-2.25,1.75-4.65,2.09-7.12,1.31-7.73,2.9-11.53,4.5-11.53.87.08,1.65.57,2.11,1.31.69.9,1.2,1.4,1.4,1.4.41,0,.9-.6,1.2-1.81.27-.63.43-1.31.49-2-.13-1.02-.58-1.97-1.29-2.71-.55-1.07-1.61-1.8-2.8-1.91-1.81,0-3.51,1.81-5.01,5.51-1.15,3.84-2.05,7.76-2.71,11.72-.14.25-.25.52-.3.8-.06.06-.13.06-.2 0,0-.27-.03-.54-.09-.8-.54-3.76-1.83-7.37-3.81-10.63-1.23-2.31-3.59-3.84-6.20-4-.2,0-.8.69-1.7,2.3-.63.85-1.1,1.8-1.4,2.8,0,.6.49,1.4,1.61,2.41"/>
            <path class="cls-2" d="M121.43,87.99c.55.98,1.57,1.61,2.71,1.65,2.71,0,4.71-2,5.64-5.76.93,3.05,2.58,4.58,4.71,4.58,1.42,0,2.58-1.05,3.4-3.16.68-1.48,1.04-3.09,1.05-4.71-.14-1.18-.46-2.33-.94-3.4-1.05-2.58-1.53-3.86-1.65-4-.25-.88-.43-1.8-.49-2.71-.11-.71-.24-1.05-.35-1.05-.24,0-.49.35-.82.94-.63.9-.98,1.97-.96,3.05.43,3.07,1.56,6.01,3.29,8.58-.17.96-1.02,1.67-2,1.65-2.58,0-3.76-1.65-3.76-4.83-.13-1.75-.41-3.48-.82-5.18-.58-2.35-1.05-3.53-1.42-3.53-.13,0-.49.35-.82,1.18-.31.58-.5,1.23-.58,1.89.16,1.07.39,2.14.71,3.16.38,1.23.61,2.49.71,3.76,0,1.24-.5,2.44-1.42,3.29-.74.85-1.81,1.37-2.94,1.42-.82,0-1.53-.58-2.11-1.76-.38-1.05-.57-2.17-.58-3.29-.02-.63.06-1.28.24-1.89.25-.83.38-1.72.35-2.58,0-2.11-.35-3.05-.82-3.18-.76.27-1.42.76-1.89,1.42-.8.77-1.28,1.83-1.29,2.94,0,.71.24,1.18.71,1.29.47.11.82.35.82.82v4.58c-.13,1.72.33,3.42,1.29,4.83"/>
            <path class="cls-2" d="M55.16,118.14c-5.39,2.93-8.69,4.82-9.9,5.67-.61.44-1.18.94-1.7,1.51.83-.06,1.65-.22,2.46-.49,5.67-1.18,11.18-3.02,16.41-5.48,3.16-2.44,5.9-5.37,8.12-8.69,1.72-1.98,2.99-4.3,3.78-6.8,0-2.46-5.31-3.68-15.95-3.68-2.11-.08-4.22-.02-6.33.19-2.13.17-4.08,1.28-5.31,3.02l-3.31,5.57c-.25.44-.46.91-.57,1.42,0,.38.85.49,2.46.38,3.5-.19,5.31-.19,5.39-.19,9.18,0,13.78.57,13.78,1.8,0,.19-.09.28-.19.49-2.94,1.97-6,3.73-9.18,5.31"/>
          </g>
        </g>
      </g>
    </g>
  </g>
</svg>

